<svg width="32" height="30" viewBox="0 0 32 30" fill="none" xmlns="http://www.w3.org/2000/svg">
<path d="M15.6794 9.73604C12.812 9.73604 10.4719 11.9249 10.4719 14.6072C10.4719 17.2894 12.812 19.4783 15.6794 19.4783C18.5469 19.4783 20.887 17.2894 20.887 14.6072C20.887 11.9249 18.5469 9.73604 15.6794 9.73604ZM31.2981 14.6072C31.2981 12.59 31.3177 10.5911 31.1966 8.57764C31.0755 6.23891 30.5051 4.16329 28.6768 2.4531C26.8446 0.739248 24.6295 0.20938 22.1293 0.0960977C19.9728 -0.0171844 17.8359 0.00108694 15.6833 0.00108694C13.5269 0.00108694 11.39 -0.0171844 9.2374 0.0960977C6.73716 0.20938 4.5182 0.742902 2.68989 2.4531C0.857684 4.16695 0.291223 6.23891 0.170117 8.57764C0.0490116 10.5948 0.0685448 12.5937 0.0685448 14.6072C0.0685448 16.6207 0.0490116 18.6232 0.170117 20.6367C0.291223 22.9754 0.861591 25.0511 2.68989 26.7613C4.5221 28.4751 6.73716 29.005 9.2374 29.1183C11.3939 29.2315 13.5308 29.2133 15.6833 29.2133C17.8398 29.2133 19.9767 29.2315 22.1293 29.1183C24.6295 29.005 26.8485 28.4715 28.6768 26.7613C30.509 25.0474 31.0755 22.9754 31.1966 20.6367C31.3216 18.6232 31.2981 16.6243 31.2981 14.6072ZM15.6794 22.1021C11.2454 22.1021 7.66694 18.7548 7.66694 14.6072C7.66694 10.4596 11.2454 7.11228 15.6794 7.11228C20.1135 7.11228 23.6919 10.4596 23.6919 14.6072C23.6919 18.7548 20.1135 22.1021 15.6794 22.1021ZM24.0201 8.55572C22.9848 8.55572 22.1488 7.77371 22.1488 6.80533C22.1488 5.83695 22.9848 5.05493 24.0201 5.05493C25.0553 5.05493 25.8914 5.83695 25.8914 6.80533C25.8917 7.03527 25.8435 7.26302 25.7495 7.47551C25.6556 7.68801 25.5178 7.88109 25.344 8.04368C25.1701 8.20628 24.9637 8.3352 24.7366 8.42307C24.5094 8.51093 24.2659 8.55601 24.0201 8.55572Z" fill="#272D4E"/>
</svg>
