<svg width="32" height="30" viewBox="0 0 32 30" fill="none" xmlns="http://www.w3.org/2000/svg">
<path fill-rule="evenodd" clip-rule="evenodd" d="M3.48437 0C19.0251 0 31.6732 11.7965 31.7391 26.3187V26.3196H31.7415V27.8561H31.723C31.6818 28.1969 31.5189 28.5146 31.2605 28.7579C31.0021 29.0011 30.6634 29.1555 30.2994 29.1962V29.2144H27.3787V29.2113C26.9837 29.2035 26.605 29.0618 26.3133 28.8124C26.0216 28.5631 25.8367 28.2231 25.793 27.8557H25.7745V26.3191H25.7911C25.7252 14.8638 15.7455 5.56333 3.48389 5.56333C3.47225 5.56333 3.46061 5.56254 3.44897 5.56175C3.43927 5.56109 3.42957 5.56043 3.41987 5.56022V5.58152H1.77722V5.56422C1.41292 5.52582 1.07317 5.37339 0.813126 5.13167C0.553078 4.88995 0.387985 4.57312 0.344638 4.2326H0.325195V1.50062H0.328515C0.336782 1.13106 0.488304 0.776891 0.754886 0.504029C1.02147 0.231167 1.38495 0.0581941 1.77769 0.0172993V0H3.42035V0.00310502C3.43 0.00290445 3.43955 0.00225041 3.44914 0.001594C3.46075 0.000798738 3.47242 0 3.48437 0ZM3.44924 10.5264H3.44922C3.43964 10.527 3.43008 10.5277 3.42043 10.5279V10.5248H1.77778V10.5421C1.38504 10.583 1.02155 10.756 0.754973 11.0288C0.488391 11.3017 0.336868 11.6559 0.328601 12.0255H0.325281V14.7578H0.344724C0.388153 15.0983 0.553272 15.4151 0.813304 15.6568C1.07334 15.8986 1.41303 16.051 1.77731 16.0895V16.1068H3.41996V16.0855C3.42966 16.0857 3.43937 16.0864 3.44907 16.087C3.46071 16.0878 3.47234 16.0886 3.48398 16.0886C9.54056 16.0886 14.4728 20.6672 14.5382 26.3189H14.5226V27.8556H14.5411C14.5848 28.223 14.7697 28.563 15.0614 28.8124C15.3531 29.0618 15.7318 29.2035 16.1268 29.2113V29.2144H19.047V29.1962C19.411 29.1555 19.7497 29.0011 20.0081 28.7578C20.2665 28.5146 20.4294 28.1968 20.4706 27.856H20.4891V26.3193H20.4862C20.4213 17.5991 12.8202 10.5248 3.48445 10.5248C3.47251 10.5248 3.46085 10.5256 3.44924 10.5264ZM4.7748 21.2382C4.22787 21.2382 3.6863 21.339 3.18103 21.5349C2.67575 21.7307 2.21668 22.0177 1.83003 22.3795C1.44338 22.7414 1.13674 23.1709 0.927607 23.6436C0.71848 24.1163 0.61097 24.6229 0.611219 25.1345C0.611219 25.646 0.718937 26.1526 0.928224 26.6252C1.13751 27.0978 1.44427 27.5272 1.83098 27.8889C2.21769 28.2506 2.67679 28.5376 3.18205 28.7333C3.68731 28.9291 4.22885 29.0298 4.77574 29.0298C5.32264 29.0298 5.86418 28.9291 6.36944 28.7333C6.8747 28.5376 7.3338 28.2506 7.72051 27.8889C8.10722 27.5272 8.41398 27.0978 8.62326 26.6252C8.83255 26.1526 8.94027 25.646 8.94027 25.1345C8.94052 24.6228 8.83295 24.116 8.6237 23.6432C8.41445 23.1704 8.10764 22.7408 7.72079 22.3789C7.33394 22.0171 6.87464 21.7301 6.36915 21.5344C5.86366 21.3386 5.32188 21.238 4.7748 21.2382Z" fill="#272D4E"/>
</svg>
