<svg width="39" height="30" viewBox="0 0 39 30" fill="none" xmlns="http://www.w3.org/2000/svg">
<path d="M38.4439 3.4703C37.0302 4.04076 35.4917 4.45132 33.907 4.61122C35.5523 3.69691 36.7843 2.25246 37.3721 0.548867C35.8282 1.40796 34.1368 2.01038 32.3731 2.32939C31.6359 1.59223 30.7444 1.00497 29.754 0.604216C28.7636 0.20346 27.6955 -0.00221175 26.6164 1.79366e-05C22.2504 1.79366e-05 18.7392 3.3104 18.7392 7.37275C18.7392 7.94321 18.8131 8.51366 18.9332 9.06251C12.3958 8.74271 6.56517 5.82128 2.6889 1.34837C1.98261 2.47682 1.61248 3.76169 1.61704 5.06931C1.61704 7.62773 3.00769 9.88363 5.12832 11.2104C3.8786 11.1643 2.65815 10.843 1.56622 10.2726V10.3633C1.56622 13.946 4.2736 16.9149 7.88191 17.5978C7.20441 17.7624 6.50746 17.8466 5.80748 17.8484C5.29464 17.8484 4.80953 17.8009 4.3198 17.7361C5.31774 20.6575 8.22379 22.7794 11.6843 22.8486C8.97687 24.8322 5.58571 25.999 1.90348 25.999C1.24281 25.999 0.632955 25.9774 0 25.9083C3.4928 28.0043 7.63704 29.2144 12.1001 29.2144C26.5887 29.2144 34.5168 17.9867 34.5168 8.2414C34.5168 7.9216 34.5168 7.6018 34.4937 7.28199C36.0276 6.23183 37.3721 4.93102 38.4439 3.4703Z" fill="#272D4E"/>
</svg>
